# xmcd
#
# Track frame offsets:
#	150
#	14130
#	27737
#	43015
#	58370
#	73687
#	89970
#	107662
#	126062
#	144147
#	154532
#	170632
#	183895
#	199922
#	213825
#	231000
#	244220
#	252542
#
# Disc length: 3512
#
# Revision: 1
# Processed by: cddbd v1.5.1PL0 Copyright (c) Steve Scherf et al.
# Submitted via: VisiTrax 2.9.5.180 - For more info visit www.synapsa.com
# Normalized: r0:DSETVAR1
#
DISCID=100db612
DTITLE=Various Artist - CDX 118 September 1995
DYEAR=1995
DGENRE=
TTITLE0=Victoria Shaw - (A day in the life of a) Single mother
TTITLE1=Geezinslaws - Because of country music (I've gone crazy)
TTITLE2=George Strait - Check yes or no
TTITLE3=Pam Tillis - Deep down
TTITLE4=Western Flyer - His memory
TTITLE5=Chely Wright - Listenin' to the radio
TTITLE6=Tracy Byrd - Love lessons
TTITLE7=Claire Lynch - My heart is a diamond
TTITLE8=Bryan White - Rebecca Lynn
TTITLE9=Ken Mellons - Rub-a-dubbin
TTITLE10=Rhett Akins - She said yes
TTITLE11=Garth Brooks - She's every woman
TTITLE12=Jeff Carson - The car
TTITLE13=Dan Seals - The healing kind
TTITLE14=Bellamy Brothers - We dared the lightin'
TTITLE15=Brooks and Dunn - Whiskey under the bridge
TTITLE16=Roger Miller - Dang me
TTITLE17=Roger Miller - King of the road
EXTD=
EXTT0=
EXTT1=
EXTT2=
EXTT3=
EXTT4=
EXTT5=
EXTT6=
EXTT7=
EXTT8=
EXTT9=
EXTT10=
EXTT11=
EXTT12=
EXTT13=
EXTT14=
EXTT15=
EXTT16=
EXTT17=
PLAYORDER=
